<?xml version="1.0" encoding="UTF-8" standalone="no"?>
<!-- Created with Inkscape (http://www.inkscape.org/) -->

<svg
   xmlns:dc="http://purl.org/dc/elements/1.1/"
   xmlns:cc="http://creativecommons.org/ns#"
   xmlns:rdf="http://www.w3.org/1999/02/22-rdf-syntax-ns#"
   xmlns:svg="http://www.w3.org/2000/svg"
   xmlns="http://www.w3.org/2000/svg"
   xmlns:sodipodi="http://sodipodi.sourceforge.net/DTD/sodipodi-0.dtd"
   xmlns:inkscape="http://www.inkscape.org/namespaces/inkscape"
   width="122.18285mm"
   height="123.79104mm"
   viewBox="0 0 122.18285 123.79104"
   version="1.1"
   id="svg8"
   inkscape:version="0.92.3 (unknown)"
   sodipodi:docname="logo.svg">
  <defs
     id="defs2" />
  <sodipodi:namedview
     id="base"
     pagecolor="#ffffff"
     bordercolor="#666666"
     borderopacity="1.0"
     inkscape:pageopacity="0.0"
     inkscape:pageshadow="2"
     inkscape:zoom="0.64"
     inkscape:cx="278.73265"
     inkscape:cy="224.46801"
     inkscape:document-units="mm"
     inkscape:current-layer="layer1"
     showgrid="false"
     inkscape:window-width="1299"
     inkscape:window-height="713"
     inkscape:window-x="67"
     inkscape:window-y="27"
     inkscape:window-maximized="1"
     showguides="false" />
  <metadata
     id="metadata5">
    <rdf:RDF>
      <cc:Work
         rdf:about="">
        <dc:format>image/svg+xml</dc:format>
        <dc:type
           rdf:resource="http://purl.org/dc/dcmitype/StillImage" />
        <dc:title />
      </cc:Work>
    </rdf:RDF>
  </metadata>
  <g
     inkscape:label="Layer 1"
     inkscape:groupmode="layer"
     id="layer1"
     transform="translate(98.13309,-114.1521)">
    <path
       style="opacity:1;fill:#1d4771;fill-opacity:1;fill-rule:nonzero;stroke:none;stroke-width:0.25744501;stroke-linecap:square;stroke-linejoin:round;stroke-miterlimit:4;stroke-dasharray:none;stroke-dashoffset:0;stroke-opacity:1;paint-order:stroke fill markers"
       d="m -36.827264,114.1521 c -32.038276,-1.6e-4 -57.608009,24.84103 -60.555388,56.10825 l 29.64204,-10.23405 c 5.7295,-11.25228 17.42081,-18.96016 30.913348,-18.96008 14.71376,0.001 27.7203861,9.27269 32.6259171,22.95415 l -32.2755501,10.68772 c -0.591598,0.1959 -1.158095,0.43182 -1.701189,0.69918 l -41.476529,13.45396 c -6.925601,2.24654 -10.692553,9.63104 -8.446003,16.55661 2.246551,6.92558 9.630516,10.69202 16.556092,8.44548 L 14.75305,185.8702 c 1.23786,-0.40154 2.26509,-0.99657 3.12798,-1.73323 5.37114,-3.02486 6.69479,-8.37448 5.99756,-15.5701 -0.28006,-4.00104 -1.15216,-8.31603 -2.08876,-11.75381 -7.98497,-24.7527 -31.2078129,-42.66086 -58.617094,-42.66096 z"
       id="rect832"
       inkscape:connector-curvature="0"
       sodipodi:nodetypes="ccccccccscccccc" />
    <path
       style="opacity:1;fill:#173859;fill-opacity:1;fill-rule:nonzero;stroke:none;stroke-width:0.97302049;stroke-linecap:square;stroke-linejoin:round;stroke-miterlimit:4;stroke-dasharray:none;stroke-dashoffset:0;stroke-opacity:1;paint-order:stroke fill markers"
       d="m 375.96875,50.109375 c 0,0 -125.32292,139.254095 0,0 z m 0,0 c 28.85301,26.7766 50.91086,60.775755 63.2832,99.128905 3.53991,12.99319 6.83604,29.30179 7.89453,44.42383 2.6352,27.19604 -2.36759,47.41511 -22.66796,58.84766 -3.26132,2.78422 -7.14374,5.03315 -11.82227,6.55078 L 86.492188,364.86133 c -13.930082,4.51868 -28.350515,2.59962 -40.074219,-4.12891 12.529398,15.65261 33.816648,22.70012 54.074221,16.12891 L 426.65625,271.06055 c 4.67853,-1.51763 8.56095,-3.76656 11.82227,-6.55078 20.30037,-11.43255 25.30316,-31.65162 22.66796,-58.84766 -1.05849,-15.12204 -4.35462,-31.43064 -7.89453,-44.42383 -14.30384,-44.34063 -41.5518,-82.862671 -77.2832,-111.128905 z M 46.417969,360.73242 c -30.945313,71.42615 -15.472656,35.71308 0,0 z"
       id="path864"
       inkscape:connector-curvature="0"
       sodipodi:nodetypes="ccccccccccccccccc"
       transform="matrix(0.26458333,0,0,0.26458333,-98.13309,114.1521)" />
    <path
       style="opacity:1;fill:#007cc2;fill-opacity:1;fill-rule:nonzero;stroke:none;stroke-width:0.79220933;stroke-linecap:square;stroke-linejoin:round;stroke-miterlimit:4;stroke-dasharray:none;stroke-dashoffset:0;stroke-opacity:1;paint-order:stroke fill markers"
       d="m 80.255859,277.30078 c -16.830083,-0.10611 -32.082006,7.97946 -40.554687,25.03711 -12.910791,25.99261 -4.066882,61.74321 17.818359,80.80469 0,0 22.17827,21.20237 34.677735,29.99804 13.088884,9.21049 26.524854,18.93799 41.828124,25.69949 12.71637,5.61853 28.91095,12.86307 45.15497,16.86244 14.26417,3.51192 17.914,2.77116 44.55188,5.36013 29.70414,2.88698 61.39994,-4.41187 74.31073,-30.40448 12.91075,-25.9926 2.14913,-59.02687 -26.2832,-64.84961 -15.44236,-2.47581 -25.0065,-3.93558 -39.52344,-3.8164 -46.91948,-0.0669 -90.18291,-25.3444 -113.2793,-66.18555 -5.31506,-7.25889 -4.10086,-5.80797 -11.70312,-11.70898 -7.8809,-6.1173 -18.182293,-6.7413 -26.998051,-6.79688 z"
       id="path887"
       inkscape:connector-curvature="0"
       sodipodi:nodetypes="scccsssccccss"
       transform="matrix(0.26458333,0,0,0.26458333,-98.13309,114.1521)" />
    <path
       style="fill:#007cc2;fill-opacity:1;stroke:none;stroke-width:1.0370245px;stroke-linecap:butt;stroke-linejoin:miter;stroke-opacity:1"
       d="m 240.41248,-0.34607588 c -8.58603,-0.029529 -16.20551,-0.59271777 -24.63709,-0.22033037 C 198.54664,0.19448824 181.20447,2.9836729 164.81055,8.3359375 140.75843,16.188435 116.01147,28.460594 96.736328,41.910156 77.461153,55.359718 63.584633,68.30823 49.548828,86.783203 35.918869,104.72402 22.652338,125.88286 14.535156,148.78906 5.9122616,173.12235 8.6325783,164.98082 3.453125,189.69727 c -2.4540454,11.71075 -2.88063406,24.43631 0.578125,35.89062 3.512315,11.63172 9.952797,23.78453 19.681641,30.68164 9.728844,6.89707 22.541849,9.53872 34.154297,8.10352 11.220548,-1.38675 21.533902,-7.7962 30.101562,-15.63086 8.278753,-7.57055 10.3157,-16.17289 13.31445,-27.20703 1.21468,-19.83174 5.06613,-31.04332 11.03125,-40.94727 20.46547,-48.08118 67.6664,-79.29375 119.92188,-79.30078 1.6342,0.0507 3.2673,0.13205 4.89844,0.24414 14.48463,-1.2017 24.987,1.66842 37.23437,-0.87305 10.64769,-2.209471 21.35345,-5.528699 28.94531,-13.31445 6.44655,-6.611187 10.65789,-15.781044 12.15625,-24.892578 1.95742,-11.902904 1.13577,-25.295476 -4.63086,-35.890625 C 304.55639,15.015715 293.9529,9.3788994 283.05273,5.1425781 269.94177,0.04701907 254.72253,-0.29686158 240.41248,-0.34607588 Z"
       id="path891"
       inkscape:connector-curvature="0"
       sodipodi:nodetypes="scsscsscccccccccscccs"
       transform="matrix(0.26458333,0,0,0.26458333,-98.13309,114.1521)" />
    <path
       style="fill:#0067a2;fill-opacity:1;stroke:none;stroke-width:1.0370245px;stroke-linecap:butt;stroke-linejoin:miter;stroke-opacity:1"
       d="m 307.4707,48.451172 c -1.49836,9.111534 -5.7097,18.281391 -12.15625,24.892578 -7.59186,7.785751 -18.29762,11.104979 -28.94531,13.314453 -12.24737,2.541468 -22.74974,-0.328654 -37.23437,0.873047 -1.63114,-0.112252 -3.26424,-0.193495 -4.89844,-0.244141 -52.25548,0.007 -99.45641,31.219601 -119.92188,79.300781 -5.965119,9.90395 -9.816567,21.11552 -11.031247,40.94727 -2.998753,11.03414 -5.0357,19.63648 -13.314453,27.20703 -8.56766,7.83466 -18.881014,14.24411 -30.101562,15.63086 -11.612452,1.4352 -24.425453,-1.20645 -34.154297,-8.10352 -3.299364,-2.33903 -6.210559,-5.29259 -8.7675785,-8.61523 3.7560945,8.8944 9.2849375,17.31053 16.7675785,22.61523 9.728844,6.89707 22.541849,9.53872 34.154297,8.10352 11.220547,-1.38675 21.533902,-7.7962 30.101562,-15.63086 8.278753,-7.57055 10.315703,-16.17289 13.31445,-27.20703 1.21468,-19.83174 5.06613,-31.04332 11.03125,-40.94727 20.46547,-48.08118 67.6664,-79.29375 119.92188,-79.30078 1.6342,0.0507 3.2673,0.13205 4.89844,0.24414 14.48463,-1.2017 24.987,1.66842 37.23437,-0.87305 10.64769,-2.209468 21.35345,-5.528699 28.94531,-13.31445 6.44655,-6.611187 10.65789,-15.781044 12.15625,-24.892578 1.95742,-11.902904 1.13577,-25.295476 -4.63086,-35.890625 -8.32467,-17.2053607 -2.30348,15.086729 -3.36914,21.890625 z"
       id="path852"
       inkscape:connector-curvature="0"
       sodipodi:nodetypes="cscccccccccccccccccsccc"
       transform="matrix(0.26458333,0,0,0.26458333,-98.13309,114.1521)" />
    <path
       style="opacity:1;fill:#0067a2;fill-opacity:1;fill-rule:nonzero;stroke:none;stroke-width:0.20960538;stroke-linecap:square;stroke-linejoin:round;stroke-miterlimit:4;stroke-dasharray:none;stroke-dashoffset:0;stroke-opacity:1;paint-order:stroke fill markers"
       d="m -76.898742,187.52126 c -4.45296,-0.0281 -8.48837,2.11123 -10.7301,6.6244 -0.0338,0.068 -0.0635,0.13772 -0.0961,0.20619 2.28709,-2.48648 5.38152,-3.67657 8.70955,-3.65559 2.3325,0.0147 5.05808,0.17981 7.14323,1.79834 2.01143,1.56131 1.69018,1.17742 3.09645,3.098 6.11092,10.80589 17.5577,17.4939 29.97182,17.5116 3.84094,-0.0315 6.37145,0.3547 10.45724,1.00975 7.43566,1.52278 10.299076,10.07827 7.065717,16.91732 0.780574,-0.85763 1.457351,-1.83155 2.005047,-2.93419 3.415969,-6.87721 0.568624,-15.61753 -6.954097,-17.15813 -4.085787,-0.65505 -6.616307,-1.04128 -10.457247,-1.00975 -12.41411,-0.0177 -23.86089,-6.70571 -29.97181,-17.5116 -1.40628,-1.92057 -1.08502,-1.53669 -3.09645,-3.098 -2.08516,-1.61854 -4.81073,-1.78364 -7.14323,-1.79834 z"
       id="path858"
       inkscape:connector-curvature="0" />
  </g>
</svg>
